<?xml version="1.0" encoding="utf-8"?>
<!-- Generator: Adobe Illustrator 16.0.0, SVG Export Plug-In . SVG Version: 6.00 Build 0)  -->
<!DOCTYPE svg PUBLIC "-//W3C//DTD SVG 1.1//EN" "http://www.w3.org/Graphics/SVG/1.1/DTD/svg11.dtd">
<svg version="1.1" xmlns="http://www.w3.org/2000/svg" xmlns:xlink="http://www.w3.org/1999/xlink" x="0px" y="0px" width="65px"
	 height="65px" viewBox="0 0 65 65" enable-background="new 0 0 65 65" xml:space="preserve">
<g id="Layer_2">
</g>
<g id="Layer_1">
	<g id="Oval-27_1_">
		<circle id="path-3_1_" fill="#FFFFFF" stroke="#B7BCC0" stroke-width="2" cx="33.083" cy="34" r="30"/>
	</g>
	<path id="twiiter-ico" fill="#BBBDBF" d="M40.731,29.609c0-0.133-0.109-0.25-0.25-0.25c-0.078,0-0.617,0.227-0.758,0.266
		c0.188-0.219,0.617-0.883,0.617-1.164c0-0.133-0.109-0.25-0.25-0.25c-0.039,0-0.086,0.016-0.125,0.039
		c-0.531,0.289-1.039,0.516-1.633,0.641C37.747,28.328,36.95,28,36.13,28c-1.734,0-3.156,1.414-3.156,3.156
		c0,0.125,0.008,0.258,0.031,0.383c-1.719-0.148-3.352-0.867-4.633-2.016c-0.313-0.281-0.578-0.586-0.859-0.898
		c-0.063-0.07-0.117-0.094-0.211-0.094c-0.086,0-0.156,0.063-0.195,0.125c-0.281,0.414-0.43,1.086-0.43,1.586
		c0,0.727,0.25,1.438,0.719,2c-0.148-0.047-0.375-0.195-0.508-0.195c-0.164,0-0.305,0.117-0.305,0.281
		c0,1.094,0.602,2.109,1.523,2.68c-0.07-0.008-0.133-0.031-0.203-0.031c-0.133,0-0.242,0.117-0.242,0.242
		c0,0.031,0.008,0.055,0.016,0.086c0.344,1.055,1.203,1.852,2.281,2.102c-0.883,0.547-1.898,0.828-2.93,0.828
		c-0.234,0-0.469-0.039-0.695-0.039c-0.141,0-0.25,0.117-0.25,0.25c0,0.086,0.047,0.156,0.117,0.211
		c0.203,0.148,0.453,0.273,0.68,0.391C28.083,39.672,29.427,40,30.786,40c3.406,0,6.32-1.828,7.727-4.938
		c0.508-1.117,0.805-2.344,0.781-3.57v-0.258c0.531-0.398,1.047-0.914,1.398-1.484C40.716,29.711,40.731,29.664,40.731,29.609
		L40.731,29.609z"/>
	<g>
	</g>
	<g>
	</g>
	<g>
	</g>
	<g>
	</g>
	<g>
	</g>
	<g>
	</g>
</g>
</svg>
