<?xml version="1.0" encoding="utf-8"?>
<!-- Generator: Adobe Illustrator 16.0.0, SVG Export Plug-In . SVG Version: 6.00 Build 0)  -->
<!DOCTYPE svg PUBLIC "-//W3C//DTD SVG 1.1//EN" "http://www.w3.org/Graphics/SVG/1.1/DTD/svg11.dtd">
<svg version="1.1" xmlns="http://www.w3.org/2000/svg" xmlns:xlink="http://www.w3.org/1999/xlink" x="0px" y="0px" width="65px"
	 height="65px" viewBox="0 0 65 65" enable-background="new 0 0 65 65" xml:space="preserve">
<g id="Layer_2">
	<g id="Oval-27_2_">
		<circle id="path-5_1_" fill="#FFFFFF" stroke="#B7BCC0" stroke-width="2" cx="33.166" cy="33" r="30"/>
	</g>
	<g id="_x40_Icons_x2F_Camera" transform="translate(19.000000, 21.000000)">
		<path id="Icons_x2F_Camera" fill="#BBBDBF" d="M21.69,4.854h-2.493l-0.568-1.516C18.351,2.602,17.482,2,16.703,2h-5.7
			c-0.779,0-1.647,0.602-1.926,1.338L8.51,4.854H6.016c-1.57,0-2.85,1.281-2.85,2.852v9.985c0,1.571,1.279,2.853,2.85,2.853H21.69
			c1.569,0,2.851-1.281,2.851-2.853V7.705C24.541,6.135,23.26,4.854,21.69,4.854z M13.854,17.69c-2.75,0-4.988-2.239-4.988-4.992
			s2.238-4.993,4.988-4.993s4.987,2.24,4.987,4.993S16.604,17.69,13.854,17.69z"/>
		<path id="Path" fill="#BBBDBF" d="M10.646,12.698c0,1.772,1.437,3.21,3.207,3.21c1.77,0,3.206-1.438,3.206-3.21
			s-1.437-3.21-3.206-3.21C12.083,9.488,10.646,10.926,10.646,12.698z"/>
	</g>
</g>
<g id="Layer_1">
	<g>
	</g>
	<g>
	</g>
	<g>
	</g>
	<g>
	</g>
	<g>
	</g>
	<g>
	</g>
</g>
</svg>
