<?xml version="1.0" encoding="utf-8"?>
<!-- Generator: Adobe Illustrator 16.0.0, SVG Export Plug-In . SVG Version: 6.00 Build 0)  -->
<!DOCTYPE svg PUBLIC "-//W3C//DTD SVG 1.1//EN" "http://www.w3.org/Graphics/SVG/1.1/DTD/svg11.dtd">
<svg version="1.1" xmlns="http://www.w3.org/2000/svg" xmlns:xlink="http://www.w3.org/1999/xlink" x="0px" y="0px" width="65px"
	 height="65px" viewBox="0 0 65 65" enable-background="new 0 0 65 65" xml:space="preserve">
<g id="Layer_2">
	<g id="Oval-27">
		<path id="path-1_1_" fill="#FFFFFF" stroke="#B7BCC0" stroke-width="2" d="M33,62.5c16.568,0,30-13.432,30-30s-13.432-30-30-30
			S3,15.932,3,32.5S16.432,62.5,33,62.5z"/>
	</g>
	<path id="facebook-ico" fill="#BBBDBF" d="M36.125,28.199c0.392,0,0.924,0.07,1.355,0.161c0.102,0.021,0.211,0,0.302-0.06
		c0.091-0.061,0.151-0.161,0.161-0.262l0.271-1.959c0.02-0.181-0.091-0.371-0.281-0.422c-0.703-0.201-1.467-0.301-2.261-0.301
		c-2.4,0-3.566,1.145-3.566,3.516v1.034h-1.225c-0.211,0-0.382,0.171-0.382,0.382v2.009c0,0.222,0.171,0.392,0.382,0.392h1.225
		v7.715c0,0.211,0.171,0.381,0.382,0.381H35c0.201,0,0.371-0.17,0.371-0.381v-7.715H37.4c0.201,0,0.361-0.16,0.382-0.361
		l0.141-2.009c0.011-0.11-0.03-0.211-0.101-0.292c-0.07-0.08-0.17-0.12-0.271-0.12h-2.18v-0.884
		C35.371,28.36,35.441,28.199,36.125,28.199L36.125,28.199z"/>
</g>
<g id="Layer_1">
	<g>
	</g>
	<g>
	</g>
	<g>
	</g>
	<g>
	</g>
	<g>
	</g>
	<g>
	</g>
</g>
</svg>
