<?xml version="1.0" encoding="utf-8"?>
<!-- Generator: Adobe Illustrator 16.0.0, SVG Export Plug-In . SVG Version: 6.00 Build 0)  -->
<!DOCTYPE svg PUBLIC "-//W3C//DTD SVG 1.1//EN" "http://www.w3.org/Graphics/SVG/1.1/DTD/svg11.dtd">
<svg version="1.1" id="Layer_1" xmlns="http://www.w3.org/2000/svg" xmlns:xlink="http://www.w3.org/1999/xlink" x="0px" y="0px"
	 width="36px" height="36px" viewBox="0 0 36 36" enable-background="new 0 0 36 36" xml:space="preserve">
<path id="Shape" fill="#CDCCCC" stroke="#979797" d="M23.221,18.892c0-1.733-0.617-3.215-1.852-4.447
	c-1.234-1.231-2.72-1.848-4.457-1.848c-1.737,0-3.222,0.616-4.457,1.848c-1.234,1.232-1.852,2.714-1.852,4.447
	c0,1.733,0.617,3.216,1.852,4.446c1.234,1.232,7.679,1.232,8.913,0C22.604,22.107,23.221,20.625,23.221,18.892L23.221,18.892
	L23.221,18.892z M30.43,30.582c0,0.486-0.178,0.908-0.535,1.264c-0.356,0.356-0.779,0.534-1.268,0.534
	c-0.506,0-0.929-0.178-1.267-0.534l-4.829-4.805c-1.682,1.161-3.554,1.742-5.619,1.742c-1.342,0-2.626-0.26-3.851-0.779
	c-1.225-0.521-2.281-1.223-3.168-2.108c-0.887-0.885-1.591-1.938-2.112-3.161S7,20.23,7,18.892c0-1.339,0.26-2.621,0.781-3.843
	c0.521-1.223,1.225-2.276,2.112-3.162s1.943-1.587,3.168-2.107S15.57,9,16.913,9s2.626,0.26,3.851,0.78s2.281,1.222,3.168,2.107
	s1.591,1.939,2.111,3.162c0.521,1.222,0.782,2.503,0.782,3.843c0,2.061-0.582,3.929-1.746,5.606l4.829,4.818
	C30.256,29.664,30.43,30.085,30.43,30.582L30.43,30.582L30.43,30.582z"/>
<g>
</g>
<g>
</g>
<g>
</g>
<g>
</g>
<g>
</g>
<g>
</g>
</svg>
