<?xml version="1.0" encoding="UTF-8" standalone="no"?>
<svg width="200px" height="60px" viewBox="0 0 200 60" version="1.1" xmlns="http://www.w3.org/2000/svg" xmlns:xlink="http://www.w3.org/1999/xlink" style="background: #FFFFFF;">
    <!-- Generator: Sketch 41.1 (35376) - http://www.bohemiancoding.com/sketch -->
    <title>TopNavBarSocialMediaIcons</title>
    <desc>Created with Sketch.</desc>
    <defs>
        <path d="M30,60 C46.5685425,60 60,46.5685425 60,30 C60,13.4314575 46.5685425,0 30,0 C13.4314575,0 0,13.4314575 0,30 C0,46.5685425 13.4314575,60 30,60 Z" id="path-1"></path>
        <mask id="mask-2" maskContentUnits="userSpaceOnUse" maskUnits="objectBoundingBox" x="0" y="0" width="60" height="60" fill="white">
            <use xlink:href="#path-1"></use>
        </mask>
        <circle id="path-3" cx="30" cy="30" r="30"></circle>
        <mask id="mask-4" maskContentUnits="userSpaceOnUse" maskUnits="objectBoundingBox" x="0" y="0" width="60" height="60" fill="white">
            <use xlink:href="#path-3"></use>
        </mask>
        <circle id="path-5" cx="30" cy="30" r="30"></circle>
        <mask id="mask-6" maskContentUnits="userSpaceOnUse" maskUnits="objectBoundingBox" x="0" y="0" width="60" height="60" fill="white">
            <use xlink:href="#path-5"></use>
        </mask>
    </defs>
    <g id="-" stroke="none" stroke-width="1" fill="none" fill-rule="evenodd">
        <g id="TopNavBarSocialMediaIcons">
            <path d="M42.2205187,29.8915381 C42.2205187,28.1586369 41.6033381,26.676326 40.3689578,25.4445611 C39.1345776,24.2127962 37.6491195,23.5969229 35.9125396,23.5969229 C34.1759582,23.5969229 32.6905001,24.2127962 31.4561214,25.4445611 C30.2217411,26.676326 29.6045591,28.1586369 29.6045591,29.8915381 C29.6045591,31.6244393 30.2217411,33.1067502 31.4561214,34.3385151 C32.6905001,35.57028 34.1759582,36.1861533 35.9125396,36.1861533 C37.6491195,36.1861533 39.1345776,35.57028 40.3689578,34.3385151 C41.6033381,33.1067502 42.2205187,31.6244393 42.2205187,29.8915381 L42.2205187,29.8915381 L42.2205187,29.8915381 Z M49.4296382,41.5815377 C49.4296382,42.0686235 49.2512889,42.4901336 48.8945858,42.8460809 C48.5378828,43.2020281 48.1154786,43.3799992 47.6273587,43.3799992 C47.1204643,43.3799992 46.6980602,43.2020281 46.3601301,42.8460809 L41.5305832,38.0408166 C39.8503252,39.2023288 37.9776616,39.7830762 35.9125396,39.7830762 C34.5702102,39.7830762 33.2865677,39.5231449 32.061574,39.0032746 C30.8365802,38.4834042 29.7805684,37.7808873 28.8935047,36.8957025 C28.0064395,36.0105178 27.3024316,34.9567423 26.7814575,33.7343445 C26.2604834,32.5119466 26,31.2310239 26,29.8915381 C26,28.5520523 26.2604834,27.2711296 26.7814575,26.0487318 C27.3024316,24.8263339 28.0064395,23.7725584 28.8935047,22.8873737 C29.7805684,22.002189 30.8365802,21.299672 32.061574,20.7798017 C33.2865677,20.2599313 34.5702102,20 35.9125396,20 C37.254869,20 38.5385115,20.2599313 39.7635038,20.7798017 C40.9884975,21.299672 42.0445108,22.002189 42.9315745,22.8873737 C43.8186382,23.7725584 44.5226476,24.8263339 45.0436217,26.0487318 C45.5645958,27.2711296 45.8250792,28.5520523 45.8250792,29.8915381 C45.8250792,31.9522855 45.2430987,33.8209807 44.0791201,35.4976797 L48.908667,40.3169945 C49.2559821,40.6635747 49.4296382,41.0850849 49.4296382,41.5815377 L49.4296382,41.5815377 L49.4296382,41.5815377 Z" id="Shape" stroke="#979797" fill="#CCCCCC"></path>
            <g id="SocialMedia_top" transform="translate(68.000000, 17.000000)">
                <g id="Social/facebook">
                    <use id="Oval-27" stroke="#B7BCC0" mask="url(#mask-2)" stroke-width="2" fill="#FFFFFF" xlink:href="#path-1"></use>
                    <path d="M31.6250067,24.6997633 C32.0167482,24.6997633 32.549115,24.7700759 32.9810351,24.8604778 C33.0814817,24.8805671 33.1919729,24.8604778 33.2823748,24.8002099 C33.3727766,24.7399419 33.4330446,24.6394954 33.4430892,24.5390488 L33.7142949,22.5803411 C33.7343842,22.3995374 33.623893,22.2086889 33.4330446,22.1584656 C32.7299187,21.9575725 31.966525,21.857126 31.1729972,21.857126 C28.7723247,21.857126 27.6071448,23.0022166 27.6071448,25.3727552 L27.6071448,26.4073546 L26.3816969,26.4073546 C26.1707591,26.4073546 26,26.5781138 26,26.7890515 L26,28.7979825 C26,29.0189649 26.1707591,29.189724 26.3816969,29.189724 L27.6071448,29.189724 L27.6071448,36.9040189 C27.6071448,37.1149567 27.7779039,37.2857158 27.9888417,37.2857158 L30.5000054,37.2857158 C30.7008985,37.2857158 30.8716576,37.1149567 30.8716576,36.9040189 L30.8716576,29.189724 L32.9006779,29.189724 C33.101571,29.189724 33.2622854,29.0290095 33.2823748,28.8281165 L33.4229999,26.8191855 C33.4330446,26.7086943 33.392866,26.6082477 33.3225534,26.5278905 C33.2522408,26.4475333 33.1517942,26.4073546 33.0513477,26.4073546 L30.8716576,26.4073546 L30.8716576,25.523425 C30.8716576,24.8604778 30.9419702,24.6997633 31.6250067,24.6997633 L31.6250067,24.6997633 Z" id="facebook-ico" fill="#BBBDBF"></path>
                </g>
                <g id="Social/twitter" transform="translate(39.082803, 0.000000)">
                    <use id="Oval-27" stroke="#B7BCC0" mask="url(#mask-4)" stroke-width="2" fill="#FFFFFF" xlink:href="#path-3"></use>
                    <path d="M36.648455,24.6093638 C36.648455,24.4765511 36.5390798,24.3593635 36.3984547,24.3593635 C36.3203296,24.3593635 35.7812664,24.5859263 35.6406413,24.6249888 C35.8281415,24.4062386 36.2578295,23.7421753 36.2578295,23.4609249 C36.2578295,23.3281123 36.1484544,23.2109246 36.0078292,23.2109246 C35.9687667,23.2109246 35.9218916,23.2265497 35.882829,23.2499872 C35.3515784,23.53905 34.8437653,23.7656128 34.2500146,23.8906129 C33.6640764,23.3281123 32.8672005,22.9999869 32.046887,22.9999869 C30.3125099,22.9999869 28.8906332,24.4140511 28.8906332,26.1562406 C28.8906332,26.2812408 28.8984457,26.4140535 28.9218833,26.5390536 C27.2031312,26.3906159 25.5703168,25.6718651 24.2890652,24.5234262 C23.9765649,24.2421759 23.7109395,23.937488 23.4296892,23.6249876 C23.3671891,23.554675 23.3125016,23.5312375 23.2187515,23.5312375 C23.1328139,23.5312375 23.0625013,23.5937376 23.0234387,23.6562377 C22.7421884,24.0703007 22.5937507,24.7421765 22.5937507,25.2421771 C22.5937507,25.9687404 22.843751,26.6796788 23.3125016,27.2421794 C23.1640639,27.1953044 22.9375011,27.0468667 22.8046885,27.0468667 C22.6406258,27.0468667 22.5000006,27.1640544 22.5000006,27.328117 C22.5000006,28.4218684 23.1015638,29.4374946 24.0234399,30.0078077 C23.9531273,29.9999952 23.8906273,29.9765577 23.8203147,29.9765577 C23.687502,29.9765577 23.5781269,30.0937453 23.5781269,30.2187455 C23.5781269,30.2499955 23.5859394,30.2734331 23.5937519,30.3046831 C23.9375023,31.3593719 24.7968783,32.1562478 25.8750046,32.4062481 C24.9921911,32.9531238 23.9765649,33.2343741 22.9453136,33.2343741 C22.7109383,33.2343741 22.4765631,33.1953115 22.2500003,33.1953115 C22.1093751,33.1953115 22,33.3124992 22,33.4453118 C22,33.5312494 22.0468751,33.601562 22.1171876,33.6562496 C22.3203129,33.8046873 22.5703132,33.9296874 22.7968759,34.0468751 C24.0000024,34.6718758 25.343754,35.0000012 26.7031306,35.0000012 C30.1093847,35.0000012 33.0234506,33.171874 34.4297023,30.0624953 C34.9375154,28.9453065 35.2343908,27.7187425 35.2109532,26.4921785 L35.2109532,26.2343657 C35.7422039,25.8359278 36.2578295,25.3203022 36.6093924,24.749989 C36.6328299,24.7109264 36.648455,24.6640514 36.648455,24.6093638 L36.648455,24.6093638 Z" id="twiiter-ico" fill="#BBBDBF"></path>
                </g>
                <g id="Social/g+" transform="translate(78.165605, 0.000000)">
                    <use id="Oval-27" stroke="#B7BCC0" mask="url(#mask-6)" stroke-width="2" fill="#FFFFFF" xlink:href="#path-5"></use>
                    <g id="@Icons/Camera" transform="translate(19.000000, 21.000000)" fill="#BBBDBF">
                        <path d="M18.5250221,2.85282293 L16.0312691,2.85282293 L15.463495,1.33724991 C15.1851744,0.601751235 14.3168139,-2.04051013e-05 13.5375161,-2.04051013e-05 L7.83750934,-2.04051013e-05 C7.05821154,-2.04051013e-05 6.18985113,0.601751235 5.91153048,1.33724991 L5.34375637,2.85282293 L2.8500034,2.85282293 C1.28027496,2.85282293 0,4.13437364 0,5.70566626 L0,15.6906179 C0,17.2619105 1.28027496,18.5434613 2.8500034,18.5434613 L18.5250221,18.5434613 C20.0947505,18.5434613 21.3750255,17.2619105 21.3750255,15.6906179 L21.3750255,5.70566626 C21.3750255,4.13437364 20.0947505,2.85282293 18.5250221,2.85282293 Z M10.6875127,15.6906179 C7.93770477,15.6906179 5.70000679,13.4506901 5.70000679,10.6981421 C5.70000679,7.94559403 7.93770477,5.70566626 10.6875127,5.70566626 C13.4373207,5.70566626 15.6750187,7.94559403 15.6750187,10.6981421 C15.6750187,13.4506901 13.4373207,15.6906179 10.6875127,15.6906179 Z" id="Icons/Camera"></path>
                        <path d="M7.48125892,10.6981421 C7.48125892,12.4700253 8.91739344,13.9075908 10.6875127,13.9075908 C12.457632,13.9075908 13.8937666,12.4700253 13.8937666,10.6981421 C13.8937666,8.92625893 12.457632,7.48869334 10.6875127,7.48869334 C8.91739344,7.48869334 7.48125892,8.92625893 7.48125892,10.6981421 Z" id="Path"></path>
                    </g>
                </g>
            </g>
        </g>
    </g>
</svg>