<?xml version="1.0" encoding="UTF-8" standalone="no"?>
<svg width="35px" height="35px" viewBox="0 0 35 35" version="1.1" xmlns="http://www.w3.org/2000/svg" xmlns:xlink="http://www.w3.org/1999/xlink" style="background: #FFFFFF;">
    <!-- Generator: Sketch 41.1 (35376) - http://www.bohemiancoding.com/sketch -->
    <title>Artboard HamburgeMenu</title>
    <desc>Created with Sketch.</desc>
    <defs></defs>
    <g id="Page-1" stroke="none" stroke-width="1" fill="none" fill-rule="evenodd">
        <g id="Artboard-HamburgeMenu" fill="#BBBDBF">
            <g id="Icons/Menu-hamburger" transform="translate(3.000000, 6.000000)">
                <path d="M28.1000204,19.923998 C28.1000204,19.28306 27.5694861,18.7519971 26.9291862,18.7519971 L1.17083418,18.7519971 C0.530534239,18.7519971 0,19.28306 0,19.923998 L0,22.2679997 C0,22.9089377 0.530534239,23.4400006 1.17083418,23.4400006 L26.9291862,23.4400006 C27.5694861,23.4400006 28.1000204,22.9089377 28.1000204,22.2679997 L28.1000204,19.923998 Z M28.1000204,10.5479909 C28.1000204,9.90705294 27.5694861,9.37599004 26.9291862,9.37599004 L1.17083418,9.37599004 C0.530534239,9.37599004 0,9.90705294 0,10.5479909 L0,12.8919927 C0,13.5329307 0.530534239,14.0639936 1.17083418,14.0639936 L26.9291862,14.0639936 C27.5694861,14.0639936 28.1000204,13.5329307 28.1000204,12.8919927 L28.1000204,10.5479909 Z M28.1000204,1.17198388 C28.1000204,0.531045895 27.5694861,-1.70042511e-05 26.9291862,-1.70042511e-05 L1.17083418,-1.70042511e-05 C0.530534239,-1.70042511e-05 0,0.531045895 0,1.17198388 L0,3.51598564 C0,4.15692362 0.530534239,4.68798652 1.17083418,4.68798652 L26.9291862,4.68798652 C27.5694861,4.68798652 28.1000204,4.15692362 28.1000204,3.51598564 L28.1000204,1.17198388 Z"></path>
            </g>
        </g>
    </g>
</svg>